<svg id="visual" viewBox="0 0 960 300" width="960" height="300" xmlns="http://www.w3.org/2000/svg" xmlns:xlink="http://www.w3.org/1999/xlink" version="1.1"><rect x="0" y="0" width="960" height="300" fill="#202731"></rect><path d="M0 202L26.7 195C53.3 188 106.7 174 160 167C213.3 160 266.7 160 320 172C373.3 184 426.7 208 480 208.3C533.3 208.7 586.7 185.3 640 181.8C693.3 178.3 746.7 194.7 800 196.3C853.3 198 906.7 185 933.3 178.5L960 172L960 0L933.3 0C906.7 0 853.3 0 800 0C746.7 0 693.3 0 640 0C586.7 0 533.3 0 480 0C426.7 0 373.3 0 320 0C266.7 0 213.3 0 160 0C106.7 0 53.3 0 26.7 0L0 0Z" fill="#dd3f31"></path><path d="M0 168L26.7 163.8C53.3 159.7 106.7 151.3 160 146.2C213.3 141 266.7 139 320 138.3C373.3 137.7 426.7 138.3 480 137C533.3 135.7 586.7 132.3 640 128.5C693.3 124.7 746.7 120.3 800 126.8C853.3 133.3 906.7 150.7 933.3 159.3L960 168L960 0L933.3 0C906.7 0 853.3 0 800 0C746.7 0 693.3 0 640 0C586.7 0 533.3 0 480 0C426.7 0 373.3 0 320 0C266.7 0 213.3 0 160 0C106.7 0 53.3 0 26.7 0L0 0Z" fill="#cf2d40"></path><path d="M0 94L26.7 92.7C53.3 91.3 106.7 88.7 160 93C213.3 97.3 266.7 108.7 320 109.5C373.3 110.3 426.7 100.7 480 95.8C533.3 91 586.7 91 640 98C693.3 105 746.7 119 800 118.3C853.3 117.7 906.7 102.3 933.3 94.7L960 87L960 0L933.3 0C906.7 0 853.3 0 800 0C746.7 0 693.3 0 640 0C586.7 0 533.3 0 480 0C426.7 0 373.3 0 320 0C266.7 0 213.3 0 160 0C106.7 0 53.3 0 26.7 0L0 0Z" fill="#be204b"></path><path d="M0 78L26.7 72C53.3 66 106.7 54 160 47C213.3 40 266.7 38 320 43.2C373.3 48.3 426.7 60.7 480 61.5C533.3 62.3 586.7 51.7 640 46.2C693.3 40.7 746.7 40.3 800 41C853.3 41.7 906.7 43.3 933.3 44.2L960 45L960 0L933.3 0C906.7 0 853.3 0 800 0C746.7 0 693.3 0 640 0C586.7 0 533.3 0 480 0C426.7 0 373.3 0 320 0C266.7 0 213.3 0 160 0C106.7 0 53.3 0 26.7 0L0 0Z" fill="#a91953"></path></svg>