<svg id="visual" viewBox="0 0 960 300" width="960" height="300" xmlns="http://www.w3.org/2000/svg" xmlns:xlink="http://www.w3.org/1999/xlink" version="1.1"><rect x="0" y="0" width="960" height="300" fill="#202731"></rect><path d="M0 192L20 189.5C40 187 80 182 120 191.7C160 201.3 200 225.7 240 239.5C280 253.3 320 256.7 360 250.8C400 245 440 230 480 210.8C520 191.7 560 168.3 600 176.8C640 185.3 680 225.7 720 237.2C760 248.7 800 231.3 840 219.2C880 207 920 200 940 196.5L960 193L960 0L940 0C920 0 880 0 840 0C800 0 760 0 720 0C680 0 640 0 600 0C560 0 520 0 480 0C440 0 400 0 360 0C320 0 280 0 240 0C200 0 160 0 120 0C80 0 40 0 20 0L0 0Z" fill="#ff0066"></path><path d="M0 203L20 183.8C40 164.7 80 126.3 120 111.7C160 97 200 106 240 108.8C280 111.7 320 108.3 360 111C400 113.7 440 122.3 480 127.7C520 133 560 135 600 143.8C640 152.7 680 168.3 720 166.7C760 165 800 146 840 130C880 114 920 101 940 94.5L960 88L960 0L940 0C920 0 880 0 840 0C800 0 760 0 720 0C680 0 640 0 600 0C560 0 520 0 480 0C440 0 400 0 360 0C320 0 280 0 240 0C200 0 160 0 120 0C80 0 40 0 20 0L0 0Z" fill="#f52153"></path><path d="M0 69L20 77.8C40 86.7 80 104.3 120 104.3C160 104.3 200 86.7 240 90C280 93.3 320 117.7 360 128.7C400 139.7 440 137.3 480 123C520 108.7 560 82.3 600 69.7C640 57 680 58 720 61C760 64 800 69 840 72.5C880 76 920 78 940 79L960 80L960 0L940 0C920 0 880 0 840 0C800 0 760 0 720 0C680 0 640 0 600 0C560 0 520 0 480 0C440 0 400 0 360 0C320 0 280 0 240 0C200 0 160 0 120 0C80 0 40 0 20 0L0 0Z" fill="#ea3241"></path><path d="M0 60L20 62.2C40 64.3 80 68.7 120 73C160 77.3 200 81.7 240 74.3C280 67 320 48 360 42.5C400 37 440 45 480 52.2C520 59.3 560 65.7 600 63.8C640 62 680 52 720 55.3C760 58.7 800 75.3 840 80.3C880 85.3 920 78.7 940 75.3L960 72L960 0L940 0C920 0 880 0 840 0C800 0 760 0 720 0C680 0 640 0 600 0C560 0 520 0 480 0C440 0 400 0 360 0C320 0 280 0 240 0C200 0 160 0 120 0C80 0 40 0 20 0L0 0Z" fill="#dd3f31"></path></svg>