<svg id="visual" viewBox="0 0 960 300" width="960" height="300" xmlns="http://www.w3.org/2000/svg" xmlns:xlink="http://www.w3.org/1999/xlink" version="1.1"><rect x="0" y="0" width="960" height="300" fill="#202731"></rect><path d="M0 128L20 126.5C40 125 80 122 120 107.7C160 93.3 200 67.7 240 66.7C280 65.7 320 89.3 360 109.7C400 130 440 147 480 154.8C520 162.7 560 161.3 600 162.7C640 164 680 168 720 153.8C760 139.7 800 107.3 840 92.3C880 77.3 920 79.7 940 80.8L960 82L960 301L940 301C920 301 880 301 840 301C800 301 760 301 720 301C680 301 640 301 600 301C560 301 520 301 480 301C440 301 400 301 360 301C320 301 280 301 240 301C200 301 160 301 120 301C80 301 40 301 20 301L0 301Z" fill="#dd3f31"></path><path d="M0 126L20 122C40 118 80 110 120 118.8C160 127.7 200 153.3 240 162.2C280 171 320 163 360 148.2C400 133.3 440 111.7 480 116.5C520 121.3 560 152.7 600 159.7C640 166.7 680 149.3 720 144C760 138.7 800 145.3 840 141.3C880 137.3 920 122.7 940 115.3L960 108L960 301L940 301C920 301 880 301 840 301C800 301 760 301 720 301C680 301 640 301 600 301C560 301 520 301 480 301C440 301 400 301 360 301C320 301 280 301 240 301C200 301 160 301 120 301C80 301 40 301 20 301L0 301Z" fill="#ea3241"></path><path d="M0 197L20 205.2C40 213.3 80 229.7 120 222.2C160 214.7 200 183.3 240 171.2C280 159 320 166 360 180.5C400 195 440 217 480 227.2C520 237.3 560 235.7 600 229.3C640 223 680 212 720 213.7C760 215.3 800 229.7 840 236.8C880 244 920 244 940 244L960 244L960 301L940 301C920 301 880 301 840 301C800 301 760 301 720 301C680 301 640 301 600 301C560 301 520 301 480 301C440 301 400 301 360 301C320 301 280 301 240 301C200 301 160 301 120 301C80 301 40 301 20 301L0 301Z" fill="#f52153"></path><path d="M0 232L20 234.8C40 237.7 80 243.3 120 241.2C160 239 200 229 240 224.2C280 219.3 320 219.7 360 216.8C400 214 440 208 480 215.7C520 223.3 560 244.7 600 249C640 253.3 680 240.7 720 233C760 225.3 800 222.7 840 221.7C880 220.7 920 221.3 940 221.7L960 222L960 301L940 301C920 301 880 301 840 301C800 301 760 301 720 301C680 301 640 301 600 301C560 301 520 301 480 301C440 301 400 301 360 301C320 301 280 301 240 301C200 301 160 301 120 301C80 301 40 301 20 301L0 301Z" fill="#ff0066"></path></svg>